PathFileType	4	(X/Y/Z)	s04c0101.trc
DataRate	CameraRate	NumFrames	NumMarkers	Units	OrigDataRate	OrigDataStartFrame	OrigNumFrames
200	200	4	51	mm	200	1750	2000
Frame#	Time	racr			lacr			c7			jug			rlel			rdr			llel			ldr			s2			lic			ric			lasi			rasi			rpsi			lpsi			rgt			lgt			rth1			rth2			rth3			rth4			rlfc			rmfc			rsh1			rsh2			rsh3			rsh4			rlmal			rmmal			rcal			rtoe			rmt5			lth1			lth2			lth4			lth3			llfc			lmfc			lsh1			lsh2			lsh3			lsh4			llmal			lmmal			lcal			ltoe			lmt1			lmt5			SBIKE			LBIKE			RBIKE			
		X1	Y1	Z1	X2	Y2	Z2	X3	Y3	Z3	X4	Y4	Z4	X5	Y5	Z5	X6	Y6	Z6	X7	Y7	Z7	X8	Y8	Z8	X9	Y9	Z9	X10	Y10	Z10	X11	Y11	Z11	X12	Y12	Z12	X13	Y13	Z13	X14	Y14	Z14	X15	Y15	Z15	X16	Y16	Z16	X17	Y17	Z17	X18	Y18	Z18	X19	Y19	Z19	X20	Y20	Z20	X21	Y21	Z21	X22	Y22	Z22	X23	Y23	Z23	X24	Y24	Z24	X25	Y25	Z25	X26	Y26	Z26	X27	Y27	Z27	X28	Y28	Z28	X29	Y29	Z29	X30	Y30	Z30	X31	Y31	Z31	X32	Y32	Z32	X33	Y33	Z33	X34	Y34	Z34	X35	Y35	Z35	X36	Y36	Z36	X37	Y37	Z37	X38	Y38	Z38	X39	Y39	Z39	X40	Y40	Z40	X41	Y41	Z41	X42	Y42	Z42	X43	Y43	Z43	X44	Y44	Z44	X45	Y45	Z45	X46	Y46	Z46	X47	Y47	Z47	X48	Y48	Z48	X49	Y49	Z49	X50	Y50	Z50	X51	Y51	Z51	
1750	8.7500	454.028935	1439.757582	-133.446258	453.502758	1440.972177	-434.726755	399.799956	1513.695478	-283.952699	441.875520	1366.124297	-287.550891	534.962677	1146.795065	-36.857682	691.122171	904.306262	-122.439299	534.234670	1171.646901	-529.988740	685.989097	901.556362	-469.935678	-85.240687	1165.917330	-286.467882	74.177102	1195.375411	-441.374727	70.459874	1178.718423	-122.263350	111.041276	1146.014185	-396.769937	116.897682	1131.032353	-168.494061	-62.696535	1210.072373	-238.390369	-63.687797	1214.208272	-314.181218	20.633703	1108.837592	-110.871805	36.711457	1113.245142	-477.637489	110.597774	968.871456	-87.128816	173.993068	907.086748	-96.052132	200.355394	825.915632	-100.947488	201.422869	926.199214	-112.938541	264.895633	695.580243	-127.554563	245.456156	673.157550	-239.004027	230.772254	577.747143	-98.639411	234.476079	485.459013	-114.277018	193.706140	409.502386	-121.815014	266.456419	483.180739	-137.045608	177.156599	257.158122	-129.776855	202.356847	265.185937	-213.257409	110.925059	230.249732	-169.382987	407.679224	183.453994	-162.445193	339.306682	166.046645	-106.479058	107.019991	1061.865739	-491.048068	192.255666	1052.964634	-501.366913	206.900438	1084.266669	-488.008911	263.465640	1001.229005	-517.311862	394.652694	910.953219	-507.238406	432.701932	890.002153	-397.092196	333.277742	817.411160	-518.415342	292.252042	745.888568	-488.248099	216.181695	700.670079	-477.709157	315.110331	732.440933	-459.951551	111.397200	603.458450	-453.137828	110.972958	610.452230	-366.452898	29.582555	622.822445	-405.565593	289.140189	466.632814	-417.659036	216.728967	480.857773	-366.351305	207.813472	468.360926	-477.383733	-187.868574	936.936333	-286.244310	-18.307964	79.061827	-484.688702	-18.255197	79.175317	-83.880731	
1751	8.7550	454.159010	1439.901431	-133.551224	453.484129	1440.922695	-434.757124	399.794643	1513.737385	-284.103990	442.031984	1366.149510	-287.690964	534.854182	1146.741827	-37.031034	691.106312	904.294663	-122.425885	534.421245	1171.729115	-529.875527	685.971093	901.528519	-469.913808	-85.201066	1165.944113	-286.627300	74.223455	1195.326830	-441.428839	70.431666	1178.780969	-122.332393	111.073583	1146.573435	-396.893390	116.935128	1131.031091	-168.488053	-62.673844	1210.056848	-238.564179	-63.683049	1214.222144	-314.374815	20.579203	1108.809769	-111.007084	36.719154	1113.984474	-477.921920	110.044680	968.236217	-87.281753	172.961038	906.061395	-96.171673	198.687385	824.637184	-101.251461	200.545002	924.915807	-113.225461	262.319214	693.962054	-127.751205	242.636744	671.444234	-239.198699	227.643532	576.001086	-98.894861	230.900224	483.980859	-114.331709	189.755510	408.193482	-121.865239	262.834213	481.556481	-137.115133	172.504853	255.887402	-129.763132	197.850946	263.793058	-213.211788	106.201841	229.367699	-169.371568	402.656066	180.673471	-162.344801	334.170746	163.683383	-106.416468	107.135789	1063.193971	-491.185110	192.441568	1055.237388	-501.499250	206.787116	1086.669135	-488.045137	264.150268	1004.185508	-517.568551	396.468649	915.116008	-507.749788	434.940688	894.425866	-397.880011	335.990030	820.974278	-518.822518	295.587957	749.198824	-488.686482	219.885110	703.363384	-477.966909	318.543159	736.188353	-459.798702	115.979923	605.199784	-453.269099	114.987520	612.137309	-366.904421	34.328078	623.840208	-405.474831	294.430868	469.391818	-417.745037	221.907246	483.328256	-366.424321	213.080731	470.693930	-477.427015	-187.867546	936.943793	-286.207068	-18.308931	79.059310	-484.688060	-18.265450	79.179707	-83.884419	
1752	8.7600	454.266483	1440.012393	-133.632786	453.538411	1441.018436	-434.917465	399.752184	1513.771411	-284.242274	442.163927	1366.173963	-287.805803	534.762829	1146.734923	-37.199145	691.082869	904.327221	-122.460205	534.636234	1171.834599	-529.738469	685.977334	901.512871	-469.911029	-85.167706	1165.940199	-286.772872	74.318842	1195.297628	-441.566787	70.427857	1178.835737	-122.417002	110.832920	1146.986566	-396.437029	117.003792	1131.017935	-168.504080	-62.577735	1210.127615	-238.756928	-63.664798	1214.261028	-314.587335	20.568305	1108.756207	-111.159103	36.663847	1114.757893	-478.167931	109.506407	967.643867	-87.567406	171.989745	905.045254	-96.345877	197.026662	823.381735	-101.596983	199.597750	923.777274	-113.464346	259.858688	692.449952	-127.956328	239.909532	670.012009	-239.391569	224.576389	574.377256	-99.143288	227.363251	482.712496	-114.358255	185.766698	407.109745	-121.833335	259.225360	480.065241	-137.180690	167.807084	254.819160	-129.786179	193.209299	262.552027	-213.168948	101.351512	228.795455	-169.345047	397.474723	178.102548	-162.239490	328.879969	161.580468	-106.331055	107.202679	1064.567641	-491.356286	192.586246	1057.419203	-501.631281	206.633586	1088.942241	-488.051625	264.721128	1007.077302	-517.812485	398.158735	919.232886	-508.207619	437.013434	898.815027	-398.486959	338.813604	824.447552	-519.152695	298.895402	752.299908	-488.966670	223.593942	705.927185	-478.246339	321.981577	739.661421	-460.058085	120.475773	606.729158	-453.412876	119.100750	613.600546	-367.367946	38.772528	624.853341	-405.573686	299.856742	472.113639	-417.798000	227.226265	485.473672	-366.490014	218.521864	472.760145	-477.472927	-187.862901	936.936176	-286.174429	-18.310307	79.034809	-484.696820	-18.262280	79.174342	-83.891880	
1753	8.7650	454.359841	1440.150064	-133.734224	453.599667	1441.116833	-435.107079	399.744678	1513.785048	-284.389838	442.283859	1366.189259	-287.939011	534.684853	1146.731131	-37.362851	691.071055	904.277603	-122.437259	534.860884	1171.964233	-529.575757	685.973953	901.494600	-469.862749	-85.138947	1165.855346	-286.936977	74.397397	1195.276365	-441.731532	70.446873	1178.881950	-122.493337	110.777758	1147.315901	-396.419667	117.058682	1130.999973	-168.550744	-62.530077	1210.134607	-238.890296	-63.640844	1214.276681	-314.784624	20.563677	1108.752530	-111.287052	36.564052	1115.489926	-478.359831	108.936701	967.114799	-87.767873	171.001747	904.226624	-96.424808	195.489122	822.347352	-101.729885	198.735105	922.497513	-113.707151	257.542401	691.038104	-128.154441	237.236275	668.634572	-239.463757	221.574963	572.877368	-99.384108	223.748870	481.458505	-114.464238	181.821244	406.164360	-121.870364	255.650039	478.676632	-137.277990	162.933138	253.948457	-129.768499	188.551769	261.461239	-213.116760	96.404966	228.223785	-169.347261	392.188907	175.577735	-162.146785	323.461759	159.543864	-106.259630	107.232655	1065.867234	-491.562255	192.666428	1059.518084	-501.730600	206.412532	1091.162230	-488.086475	265.284017	1009.897696	-518.087348	399.750171	923.267272	-508.636279	439.016673	903.169346	-399.093329	341.427305	827.868099	-519.545739	302.211056	755.568905	-489.577159	227.482121	708.032407	-478.681475	325.341772	742.959874	-460.276255	125.098082	608.098324	-453.524273	123.535606	614.920943	-367.660672	43.271354	625.607583	-405.788872	305.341443	474.611199	-417.818247	232.631622	487.607805	-366.618495	224.029115	474.764259	-477.534591	-187.863570	936.929411	-286.182745	-18.304120	79.046347	-484.700634	-18.260005	79.171725	-83.892483	
